<svg xmlns="http://www.w3.org/2000/svg" viewBox="0 0 64 64">
  <!-- Background circle -->
  <circle cx="32" cy="32" r="30" fill="#1E88E5"/>
  
  <!-- Cow face shape - simplified like DeepSeek's minimalist style -->
  <path d="M32 15 C22 15, 14 23, 14 35 C14 47, 22 50, 32 50 C42 50, 50 47, 50 35 C50 23, 42 15, 32 15" fill="white"/>
  
  <!-- Cow ears -->
  <path d="M14 25 C12 20, 10 18, 8 21 C6 24, 10 27, 14 25" fill="white"/>
  <path d="M50 25 C52 20, 54 18, 56 21 C58 24, 54 27, 50 25" fill="white"/>
  
  <!-- Cow eyes -->
  <circle cx="24" cy="30" r="3" fill="#1E88E5"/>
  <circle cx="40" cy="30" r="3" fill="#1E88E5"/>
  
  <!-- Cow nose -->
  <ellipse cx="32" cy="38" rx="6" ry="4" fill="#1E88E5"/>
  
  <!-- Cow nostrils -->
  <circle cx="30" cy="38" r="1.5" fill="white"/>
  <circle cx="34" cy="38" r="1.5" fill="white"/>
  
  <!-- Cow spots - simplified abstract spots similar to DeepSeek's style -->
  <circle cx="22" cy="22" r="4" fill="#1E88E5"/>
  <circle cx="42" cy="22" r="4" fill="#1E88E5"/>
  <circle cx="32" cy="45" r="3" fill="#1E88E5"/>
</svg>