<svg width="328" height="82" viewBox="0 0 328 82" fill="none" xmlns="http://www.w3.org/2000/svg">
<circle cx="41" cy="41" r="41" fill="#191A23"/>
<path d="M22.5 49.4019C21.0651 50.2304 20.5735 52.0651 21.4019 53.5C22.2304 54.9349 24.0651 55.4265 25.5 54.5981L22.5 49.4019ZM61.5388 32.7765C61.9676 31.1761 61.0179 29.531 59.4175 29.1022L33.3375 22.1141C31.7371 21.6853 30.0921 22.635 29.6632 24.2354C29.2344 25.8358 30.1842 27.4808 31.7846 27.9097L54.9668 34.1213L48.7551 57.3035C48.3263 58.9039 49.276 60.5489 50.8764 60.9778C52.4768 61.4066 54.1219 60.4569 54.5507 58.8565L61.5388 32.7765ZM25.5 54.5981L60.141 34.5981L57.141 29.4019L22.5 49.4019L25.5 54.5981Z" fill="#B9FF66"/>
<path d="M115.2 55V27H118.56V51.96H132.72V55H115.2ZM145.96 55.56C143.986 55.56 142.253 55.1467 140.76 54.32C139.266 53.4667 138.106 52.28 137.28 50.76C136.453 49.24 136.04 47.48 136.04 45.48V45C136.04 42.9733 136.453 41.2 137.28 39.68C138.106 38.16 139.253 36.9867 140.72 36.16C142.186 35.3067 143.866 34.88 145.76 34.88C147.6 34.88 149.226 35.28 150.64 36.08C152.053 36.8533 153.16 37.9733 153.96 39.44C154.76 40.9067 155.16 42.6267 155.16 44.6V46.04H139.2C139.28 48.1467 139.96 49.8 141.24 51C142.52 52.1733 144.12 52.76 146.04 52.76C147.72 52.76 149.013 52.3733 149.92 51.6C150.826 50.8267 151.52 49.9067 152 48.84L154.72 50.16C154.32 50.9867 153.76 51.8133 153.04 52.64C152.346 53.4667 151.426 54.16 150.28 54.72C149.16 55.28 147.72 55.56 145.96 55.56ZM139.24 43.44H151.96C151.853 41.6267 151.226 40.2133 150.08 39.2C148.96 38.1867 147.52 37.68 145.76 37.68C143.973 37.68 142.506 38.1867 141.36 39.2C140.213 40.2133 139.506 41.6267 139.24 43.44ZM166.672 55.56C165.312 55.56 164.072 55.32 162.952 54.84C161.832 54.36 160.952 53.6667 160.312 52.76C159.672 51.8533 159.352 50.7467 159.352 49.44C159.352 48.1067 159.672 47.0133 160.312 46.16C160.952 45.28 161.832 44.6267 162.952 44.2C164.072 43.7467 165.325 43.52 166.712 43.52H173.312V42.08C173.312 40.6933 172.898 39.6 172.072 38.8C171.272 38 170.072 37.6 168.472 37.6C166.898 37.6 165.672 37.9867 164.792 38.76C163.912 39.5067 163.312 40.52 162.992 41.8L160.032 40.84C160.352 39.7467 160.858 38.76 161.552 37.88C162.245 36.9733 163.165 36.2533 164.312 35.72C165.485 35.16 166.885 34.88 168.512 34.88C171.018 34.88 172.965 35.5333 174.352 36.84C175.738 38.12 176.432 39.9333 176.432 42.28V51.12C176.432 51.92 176.805 52.32 177.552 52.32H179.352V55H176.592C175.712 55 175.005 54.76 174.472 54.28C173.938 53.7733 173.672 53.1067 173.672 52.28V52.08H173.192C172.898 52.5867 172.498 53.12 171.992 53.68C171.512 54.2133 170.845 54.6533 169.992 55C169.138 55.3733 168.032 55.56 166.672 55.56ZM167.032 52.84C168.898 52.84 170.405 52.2933 171.552 51.2C172.725 50.08 173.312 48.52 173.312 46.52V46.08H166.832C165.578 46.08 164.538 46.36 163.712 46.92C162.912 47.4533 162.512 48.2667 162.512 49.36C162.512 50.4533 162.925 51.3067 163.752 51.92C164.605 52.5333 165.698 52.84 167.032 52.84ZM183.679 55V35.44H186.759V37.84H187.319C187.666 36.9867 188.199 36.36 188.919 35.96C189.639 35.56 190.586 35.36 191.759 35.36H194.079V38.24H191.559C190.146 38.24 188.999 38.64 188.119 39.44C187.266 40.2133 186.839 41.4267 186.839 43.08V55H183.679ZM198.758 55V35.44H201.838V38.76H202.398C202.824 37.8267 203.544 36.9867 204.558 36.24C205.598 35.4667 207.118 35.08 209.118 35.08C210.584 35.08 211.891 35.3867 213.038 36C214.211 36.6133 215.144 37.52 215.838 38.72C216.531 39.92 216.878 41.4 216.878 43.16V55H213.718V43.4C213.718 41.4533 213.224 40.04 212.238 39.16C211.278 38.28 209.971 37.84 208.318 37.84C206.424 37.84 204.878 38.4533 203.678 39.68C202.504 40.9067 201.918 42.7333 201.918 45.16V55H198.758ZM233.562 55V35.44H236.642V37.88H237.202C237.576 37.1867 238.189 36.5467 239.042 35.96C239.896 35.3733 241.096 35.08 242.642 35.08C244.162 35.08 245.389 35.4133 246.322 36.08C247.282 36.7467 247.976 37.56 248.402 38.52H248.962C249.416 37.56 250.096 36.7467 251.002 36.08C251.936 35.4133 253.229 35.08 254.882 35.08C256.189 35.08 257.336 35.3467 258.322 35.88C259.309 36.4133 260.082 37.1867 260.642 38.2C261.229 39.1867 261.522 40.3733 261.522 41.76V55H258.362V42.04C258.362 40.7333 257.976 39.7067 257.202 38.96C256.456 38.1867 255.402 37.8 254.042 37.8C252.602 37.8 251.416 38.2667 250.482 39.2C249.576 40.1333 249.122 41.48 249.122 43.24V55H245.962V42.04C245.962 40.7333 245.576 39.7067 244.802 38.96C244.056 38.1867 243.002 37.8 241.642 37.8C240.202 37.8 239.016 38.2667 238.082 39.2C237.176 40.1333 236.722 41.48 236.722 43.24V55H233.562ZM277.016 55.56C275.043 55.56 273.296 55.1467 271.776 54.32C270.283 53.4933 269.11 52.3333 268.256 50.84C267.43 49.32 267.016 47.5333 267.016 45.48V44.96C267.016 42.9333 267.43 41.16 268.256 39.64C269.11 38.12 270.283 36.9467 271.776 36.12C273.296 35.2933 275.043 34.88 277.016 34.88C278.99 34.88 280.723 35.2933 282.216 36.12C283.736 36.9467 284.91 38.12 285.736 39.64C286.59 41.16 287.016 42.9333 287.016 44.96V45.48C287.016 47.5333 286.59 49.32 285.736 50.84C284.91 52.3333 283.736 53.4933 282.216 54.32C280.723 55.1467 278.99 55.56 277.016 55.56ZM277.016 52.72C279.096 52.72 280.75 52.0667 281.976 50.76C283.23 49.4267 283.856 47.64 283.856 45.4V45.04C283.856 42.8 283.23 41.0267 281.976 39.72C280.75 38.3867 279.096 37.72 277.016 37.72C274.963 37.72 273.31 38.3867 272.056 39.72C270.803 41.0267 270.176 42.8 270.176 45.04V45.4C270.176 47.64 270.803 49.4267 272.056 50.76C273.31 52.0667 274.963 52.72 277.016 52.72ZM292.703 55V35.44H295.783V37.84H296.343C296.689 36.9867 297.223 36.36 297.943 35.96C298.663 35.56 299.609 35.36 300.783 35.36H303.103V38.24H300.583C299.169 38.24 298.023 38.64 297.143 39.44C296.289 40.2133 295.863 41.4267 295.863 43.08V55H292.703ZM316.038 55.56C314.064 55.56 312.331 55.1467 310.838 54.32C309.344 53.4667 308.184 52.28 307.358 50.76C306.531 49.24 306.118 47.48 306.118 45.48V45C306.118 42.9733 306.531 41.2 307.358 39.68C308.184 38.16 309.331 36.9867 310.798 36.16C312.264 35.3067 313.944 34.88 315.838 34.88C317.678 34.88 319.304 35.28 320.718 36.08C322.131 36.8533 323.238 37.9733 324.038 39.44C324.838 40.9067 325.238 42.6267 325.238 44.6V46.04H309.278C309.358 48.1467 310.038 49.8 311.318 51C312.598 52.1733 314.198 52.76 316.118 52.76C317.798 52.76 319.091 52.3733 319.998 51.6C320.904 50.8267 321.598 49.9067 322.078 48.84L324.798 50.16C324.398 50.9867 323.838 51.8133 323.118 52.64C322.424 53.4667 321.504 54.16 320.358 54.72C319.238 55.28 317.798 55.56 316.038 55.56ZM309.318 43.44H322.038C321.931 41.6267 321.304 40.2133 320.158 39.2C319.038 38.1867 317.598 37.68 315.838 37.68C314.051 37.68 312.584 38.1867 311.438 39.2C310.291 40.2133 309.584 41.6267 309.318 43.44Z" fill="black"/>
</svg>
